<svg height="172" viewBox="0 0 800 172" width="800" xmlns="http://www.w3.org/2000/svg"><g fill="none"><path d="m75.8501873 9.98751561h391.3345297c-1.746373 4.49347369-3.01084 9.35738649-3.797604 14.55552789l-.443025 2.5552269h-14.784222l-9.444165 65.7943517h13.952508l-10.233419 68.7952679h-366.5846027c-41.8909017 0-75.8501873-33.959285-75.8501873-75.8501871 0-41.8909017 33.9592856-75.85018729 75.8501873-75.85018729zm488.1352337 12.98377029 2.020219-12.98377029h152.151663c47.406855 0 81.842697 28.44333299 81.842697 75.85018729 0 47.4068541-34.435842 75.8501871-81.842697 75.8501871h-231.949942l1.931359-12.98377h230.018583c40.236116 0 68.858927-22.630301 68.858927-62.8664171 0-40.236116-28.622811-62.866417-68.858927-62.866417zm-493.5831482 107.2627691c7.1189658 0 13.76798-1.381059 19.9472423-4.143218 6.1792623-2.762158 11.2906029-6.563629 15.3341759-11.404526 4.043572-4.840897 6.577886-10.279705 7.603017-16.3165877h-22.0402077c-1.1959862 3.7018617-3.5594474 6.7487337-7.0904544 9.1407067-3.531007 2.391972-7.4606172 3.58794-11.7889484 3.58794-5.6382209 0-10.0803889-1.907854-13.3266372-5.723619-3.2462484-3.815766-4.8693483-8.8274428-4.8693483-15.035181 0-7.0050623 2.0359937-12.7855757 6.1080421-17.3417138s9.2118646-6.834173 15.4196027-6.834173c4.2713795 0 8.0586125 1.2244438 11.3618126 3.673368s5.4103823 5.7235993 6.32161 9.8241236h22.2110616c-1.195986-9.7956969-5.41035-17.6976303-12.64322-23.7060374-7.2328687-6.0084071-16.1456802-9.0125656-26.7387012-9.0125656-8.314952 0-15.8467048 1.865141-22.5954843 5.5954791-6.7487796 3.730338-12.0452106 8.9413428-15.8894521 15.6331706s-5.7663335 14.3090069-5.7663335 22.8517658c0 7.688483 1.5946244 14.4798747 4.7839211 20.3743777 3.1892967 5.894504 7.6741778 10.507525 13.454778 13.839201s12.5150408 4.997489 20.2035238 4.997489zm128.0936522-81.2939801h-21.869353l-6.32161 45.1909687c-.683421 5.0117518-2.5628 9.0267884-5.638193 12.0452294-3.075393 3.018442-6.948053 4.52764-11.618094 4.52764-8.542759 0-12.814074-3.901135-12.814074-11.7035212 0-.6834207.113901-1.9648153.341708-3.8442223l6.492465-46.2160946h-21.6985l-7.005027 49.7186082c-.34171 2.1072139-.512563 4.2143959-.512563 6.3216099 0 7.688483 2.192609 13.725276 6.577892 18.110558 4.385283 4.385283 10.649878 6.577892 18.793975 6.577892 5.239559 0 10.080383-.968165 14.522618-2.904524 4.442234-1.936358 8.286418-4.840853 11.532667-8.71357l.170854 12.183406h18.195985zm94.798288 18.2963373 2.39196-17.8542768h-14.43719l2.733669-20.4170917h-21.698499l-2.733669 20.4170917h-20.845386l2.989951-20.4170917h-21.869354l-2.819096 20.4170917h-14.864326l-2.391961 17.8542768h14.693472l-8.457289 62.5653608h21.698499l8.628143-62.5653608h20.589105l-8.371862 62.5653608h21.613072l8.457289-62.5653608zm76.53347 35.8318048h-21.271363c-1.6516 2.790635-4.157439 5.06867-7.51759 6.834173-3.360152 1.765504-6.976533 2.648242-10.84925 2.648242-5.752124 0-10.322432-1.665813-13.711059-4.997489-3.388628-3.331676-4.969015-7.6172289-4.741208-12.8567877h58.68846c.911228-3.1892967 1.366835-6.5209227 1.366835-9.994978 0-7.3467726-1.637338-13.8818851-4.912062-19.6055336s-7.830794-10.1800542-13.668346-13.3693508c-5.837552-3.1892967-12.486566-4.7839211-19.947242-4.7839211-7.91629 0-15.134813 1.865141-21.655786 5.5954791-6.520972 3.730338-11.646551 8.9555805-15.376889 15.6758842s-5.595479 14.2662942-5.595479 22.6381979c0 7.688483 1.594625 14.536825 4.783921 20.545232 3.189297 6.008408 7.731129 10.649904 13.625633 13.924628 5.894503 3.274724 12.685895 4.912062 20.374378 4.912062 6.663352 0 12.885234-1.195969 18.665835-3.587941 5.7806-2.391973 10.592948-5.666648 14.43719-9.824124 3.844241-4.157476 6.278891-8.742021 7.304022-13.753773zm-20.075383-22.8944792h-35.708554c.683421-4.783945 2.776366-8.5427026 6.278897-11.2763854 3.502531-2.7336829 7.759609-4.1005038 12.771361-4.1005038 4.783945 0 8.727792 1.3952964 11.831662 4.185931 3.103869 2.7906345 4.712731 6.5209166 4.826634 11.1909582zm74.636319-30.2349113c-4.670041 0-8.841693.9681648-12.515079 2.9045235s-6.449741 4.5845742-8.329148 7.944726l-.341709-9.4824149h-19.819101l-10.84925 78.4221349h21.698499l5.467339-39.0402133c.911227-7.0050623 3.260451-12.3157311 7.04774-15.9321657 3.78729-3.6164346 8.898631-5.4246248 15.334176-5.4246248 3.701862.0569517 6.321602.3132307 7.859299.7688445l2.477388-19.4773929c-2.335021-.4556138-5.011712-.6834173-8.030154-.6834173z" fill="#3f1a0a"/><path d="m516.68985 68.9225847h-27.336692l-15.284268 102.7501483h-21.869353l15.284267-102.7501483h-14.095481l2.562814-17.8542769h14.180909l3.936844-22.70649c1.423793-9.6817935 5.040174-16.8291279 10.84925-21.44221769 5.809076-4.6130898 13.497444-6.91960011 23.065334-6.91960011 3.587958 0 7.147388.34170523 10.678395 1.02512594l-2.477388 17.85427686c-1.025131-.3417104-2.989936-.512563-5.894474-.512563-5.467366 0-9.197648 1.2813946-11.190958 3.8442223-1.993311 2.5628277-3.274705 5.8944537-3.844223 9.9949779l-3.424281 18.8622678h27.507547zm38.173294-68.9225847-20.148163 129.490442h-21.698499l20.148163-129.490442zm-7.402381 92.7567628c0-8.5427589 1.950567-16.159938 5.85176-22.8517658 3.901194-6.6918278 9.325764-11.931308 16.273875-15.7185978 6.94811-3.7872897 14.664954-5.6809062 23.150761-5.6809062 7.91629 0 14.878534 1.665813 20.886941 4.9974889 6.008407 3.331676 10.649903 7.9304589 13.924627 13.7964867s4.912062 12.5862306 4.912062 20.1608102c0 8.5427589-1.950567 16.2026512-5.851761 22.9799062-3.901193 6.777256-9.297288 12.030974-16.188447 15.761312s-14.636477 5.595479-23.236188 5.595479c-8.030193 0-15.063626-1.637338-21.100509-4.912062s-10.649903-7.887745-13.8392-13.8392c-3.189297-5.951456-4.783921-12.714372-4.783921-20.2889512zm22.211062-.8542716c0 6.1507864 1.665813 11.1482258 4.997489 14.9924668 3.331676 3.844242 7.845033 5.766334 13.540205 5.766334 6.321642 0 11.57536-2.263798 15.761312-6.79146 4.185951-4.527662 6.278896-10.3508887 6.278896-17.4698544 0-6.2077382-1.665813-11.2051772-4.997489-14.9924669-3.331676-3.7872898-7.845033-5.6809063-13.540205-5.6809063-6.321642 0-11.57536 2.2780349-15.761312 6.834173-4.185951 4.556138-6.278896 10.3366515-6.278896 17.3417138zm88.952522-40.8341834 6.577892 49.5477542 21.35679-48.0954924h22.979907l6.748745 49.4623264 21.6985-50.9145882h23.663323l-38.52765 78.4221342h-21.185936l-7.090454-50.0603164-21.698499 50.0603164h-22.29649l-15.206034-78.4221342z" fill="#ffb500"/></g></svg>