<svg height="600" viewBox="0 0 551 600" width="551" xmlns="http://www.w3.org/2000/svg"><g fill="none" fill-rule="evenodd"><path d="m309.6 364.083051c0-12.939754 13.689761-21.134953 25.013978-15.326391l.786022.428086.917166.56946c4.477474 2.978069 7.310685 7.884963 7.647347 13.250136l.033792 1.078709v218.054237c0 9.498305-7.698305 17.201695-17.19661 17.201695-9.181695 0-16.686141-7.19839-17.176236-16.258066l-.025459-.943629zm68.801695 39.722034c0-12.939754 13.684905-21.13981 25.008901-15.326723l.786014.428418c5.010568 2.890528 8.210475 8.091678 8.569597 13.818751l.033793 1.079554v178.332203c0 9.498305-7.698305 17.201695-17.201695 17.201695-9.181695 0-16.68139-7.19839-17.171168-16.258066l-.025442-.943629zm-129.005085 35.455932c11.471187-6.620339 25.805085 1.652542 25.805085 14.89322 0 5.781057-2.905167 11.152238-7.685379 14.328845l-.918011.56946-218.4864406 126.142373c-4.5355932 2.61356-10.0169491 3.025424-14.8881356 1.108475-13.1037365-5.148074-14.7175917-22.868973-3.1377954-30.391972l.8293208-.508028zm0-79.444068c11.471187-6.625424 25.805085 1.652543 25.805085 14.89322 0 5.785843-2.905167 11.157305-7.685379 14.32969l-.918011.568616-240.798305 139.022033c-11.2055085 6.474846-25.14994047-1.283969-25.77799032-13.998253l-.02200968-.894967.03379343-1.079554c.33667682-5.369131 3.17013665-10.276024 7.65158504-13.250135l.91801136-.568616zm86.00339-80.140678c4.986229-2.884004 11.062897-3.064254 16.185431-.54494l1.011179.539855 189.20339 109.235594c5.318644 3.076271 8.598305 8.755932 8.598305 14.898305 0 12.939753-13.689761 21.134953-25.013978 15.326391l-.786022-.428086-189.198305-109.235593c-11.466102-6.620339-11.466102-23.171187 0-29.791526zm-309.6 10.10339 112.255932 64.81017c11.466102 6.620338 11.466102 23.166101 0 29.791525-5.323729 3.071186-11.877966 3.071186-17.201695 0l-112.25084717-64.81017c-5.32372881-3.071186-8.60338983-8.750847-8.60338983-14.898305 0-13.240678 14.3338983-21.513559 25.8-14.89322zm0-79.444068 181.052542 104.532204c11.466102 6.620339 11.471187 23.166101 0 29.791525-5.323728 3.071186-11.877966 3.071186-17.201695 0l-181.04745717-104.532203c-5.32372881-3.071187-8.60338983-8.750848-8.60338983-14.898305 0-13.240678 14.3338983-21.51356 25.8-14.893221zm378.401695 29.618644c4.986229-2.884004 11.062897-3.064254 16.185431-.540751l1.011179.540751 120.401695 69.51356c5.318644 3.071186 8.598305 8.745762 8.598305 14.89322 0 12.939753-13.689761 21.139809-25.013978 15.326722l-.786022-.428417-120.39661-69.513559c-11.471187-6.620339-11.471187-23.171187 0-29.791526zm-180.6-239.954237c9.181695 0 16.686141 7.19363842 17.176236 16.2529981l.025459.9436121v247.5864408c0 12.939753-13.689762 21.134953-25.013979 15.321645l-.786021-.428425c-5.010568-2.895314-8.210475-8.092241-8.569597-13.814562l-.033793-1.078658v-247.5864408c0-9.49830512 7.70339-17.1966102 17.201695-17.1966102zm300.99661 90.9966102c11.466102-6.620339 25.8 1.6525423 25.8 14.8932208 0 5.785842-2.905167 11.1528-7.681139 14.328894l-.917166.569411-240.80339 139.027118c-11.466102 6.620339-25.794915-1.657627-25.794915-14.898305 0-5.785842 2.900663-11.1528 7.680344-14.324655l.917961-.568565zm-369.798305-90.9966102c9.18661 0 16.686469 7.19363842 17.176252 16.2529981l.025443.9436121v207.8644068c0 13.240678-14.333898 21.513559-25.8 14.89322-5.010568-2.895314-8.20597-8.092241-8.564562-13.814562l-.033743-1.078658v-207.8644068c0-9.49830512 7.698305-17.1966102 17.19661-17.1966102zm368.150847 12.5033898c10.174175-5.87181085 22.999707-.043907 25.418473 11.2597466l.173053.928389c1.065375 6.7070218-1.909374 13.3725355-7.527466 17.0712062l-.862365.5321837-239.155932 138.0762707c-11.466102 6.615255-25.794915-1.657627-25.794915-14.898305 0-5.781056 2.900663-11.152237 7.680344-14.324605l.917961-.568615z" fill="#fff4ea"/><path d="m472.998305 428.628814c5.010568 2.895314 8.210475 8.096745 8.569596 13.819595l.033794 1.07871v138.610169c0 9.389129-7.527318 17.024368-16.874888 17.198651l-.326807.003044c-9.181695 0-16.686141-7.19839-17.176236-16.258066l-.025459-.943629v-138.610169c0-9.930509 8.062818-17.066632 16.931488-17.223226l.35516-.002531c2.844438.009686 5.761488.739791 8.513352 2.327452zm-197.79661 104.969491c0 5.781057-2.905167 11.152237-7.685379 14.324606l-.918011.568614-84.071186 48.538983c-2.476004 1.430687-5.266896 2.222471-8.121918 2.301854l-.476387.006621c-17.28405 0-23.61575-22.473652-9.399271-31.610011l.795881-.484904 84.071186-48.544068c2.638373-1.522678 5.428183-2.257236 8.1602-2.324559l.356005-.005111c9.00962-.031393 17.28888 7.16506 17.28888 17.227975zm266.598305-65.247458c5.005783 2.890529 8.205407 8.091678 8.564513 13.818752l.033792 1.079554v98.888135c0 9.389129-7.52235 17.024368-16.874716 17.198651l-.326979.003044c-9.181695 0-16.68139-7.19839-17.171167-16.258066l-.025443-.943629v-98.888135c0-9.930509 8.062818-17.069492 16.931488-17.225371l.35516-.002501c2.844438.009946 5.761488.740685 8.513352 2.329566zm-86.598526-25.072546-.003169.248818-.000305 138.506881.018.668.014136.21062c.384373 4.642708 4.221853 8.289117 8.903955 8.422577l.265909.003786c4.990904 0 9.05678-3.978316 9.197906-8.935227l.003789-.266468-.000695-138.487288-.025-.788-.016717-.218366c-.274153-2.844597-1.862452-5.410871-4.299221-6.929432l-.259625-.155955c-5.98935-3.455496-13.43999.68246-13.789365 7.470537zm-201.58734 82.228022-.217181.121682-84.017953 48.512995-.558.34-.190942.126599c-7.228834 4.92257-3.861377 16.494529 5.025005 16.727804l.273751.00358c1.495294 0 2.968398-.36711 4.294835-1.068807l.303441-.167854 83.95291-48.471322.689-.427.176471-.120689c2.327581-1.659177 3.755386-4.315055 3.851087-7.177555l.005137-.307451c0-6.916779-7.312247-11.301622-13.369197-8.207098zm270.389035-42.506044-.003169.248874v98.784847l.018.693.013821.185972c.384169 4.643953 4.218486 8.288824 8.89897 8.422227l.265819.003784c4.993815 0 9.056882-3.976268 9.197909-8.935119l.003786-.266576-.000305-98.765288-.025-.784-.01713-.223862c-.274104-2.84722-1.861076-5.412555-4.292595-6.92713l-.263448-.158057c-5.986986-3.456787-13.437681.682129-13.78706 7.471753zm-506.7165212-116.108969.3559157.005096c2.7313233.068017 5.5202331.803475 8.1574365 2.327323l43.4542373 25.083051c11.4661017 6.625423 11.4661017 23.171186 0 29.791525-5.3237288 3.076271-11.8779661 3.076271-17.2016949 0l-43.44915257-25.083051c-5.32372881-3.071186-8.60338983-8.750847-8.60338983-14.898305 0-9.930508 8.0628178-17.069491 16.9314883-17.223225zm-9.2866478 17.225639c0 3.185958 1.6462355 6.136318 4.3392494 7.811811l.2638619.15813 43.4519825 25.084686c2.8472237 1.645243 6.3493683 1.645243 9.1989703-.001374 6.0481973-3.49213 6.1322-12.146475.252778-15.784164l-.2519752-.150692-43.4573436-25.084844c-6.1310805-3.542705-13.7975233.883493-13.7975233 7.966447zm481.187982-184.424603 1.012018.539857 51.6 29.791526c5.318644 3.071186 8.598305 8.750847 8.598305 14.89322 0 9.96361-8.116659 17.117054-17.020202 17.226697l-.347273.000698c-2.549355-.02115-5.155176-.621793-7.646503-1.900673l-.786022-.428417-51.6-29.791525c-11.466102-6.620339-11.466102-23.171187 0-29.791526 2.553533-1.473098 5.390163-2.239623 8.238314-2.299574l.38843-.003796c2.589671.003893 5.178661.591731 7.562933 1.763513zm-12.189504 7.467961c-6.047818 3.491911-6.131816 12.14933-.252134 15.784646l.251986.150587 51.50067 29.73446.59.322.171086.085114c5.943 2.857407 12.962562-1.410599 13.134979-8.06935l.00324-.250815c0-3.1813-1.646674-6.132788-4.334944-7.807031l-.263386-.158001-51.495975-29.730917-.717-.383-.213899-.10054c-2.687786-1.208259-5.805559-1.05921-8.374623.422847zm-390.9950882-207.160307c9.1816949 0 16.6813902 7.19363842 17.1711672 16.2529981l.025443.9436121v168.1423728c0 9.930509-8.0599576 17.066631-16.9293432 17.221081l-.35519.002444c-2.844698-.010391-5.7623821-.741423-8.5154668-2.330305-5.0057827-2.890528-8.2054073-8.091678-8.5645127-13.814512l-.0337924-1.078708v-168.1423728c0-9.38912919 7.5273182-17.01939986 16.8748876-17.19356791zm0 8c-4.9925752 0-9.0568386 3.9750506-9.1979077 8.9302334l-.0037872.2663768-.0006949 168.0183898.025.783.0180994.224426c.2740464 2.844001 1.8612726 5.409157 4.2911921 6.92279l.2635516.158116c6.0657157 3.500693 13.6210567-.778575 13.7979899-7.715481l.003167-.248868-.001-168.039983-.018-.693-.0128133-.184934c-.3840257-4.6420163-4.2169233-8.28398908-8.8988905-8.41728505zm-68.8016949-8c9.1816949 0 16.6813898 7.19363842 17.1711676 16.2529981l.0254426.9436121v128.4203388c0 12.939754-13.6849051 21.134953-25.0089014 15.321645l-.78601387-.428425c-5.01056829-2.890528-8.21047446-8.091677-8.5695964-13.814512l-.03379343-1.078708v-128.4203388c0-9.18169495 7.19363842-16.68138986 16.2529981-17.17116764zm.0703051 8.001-.666.017-.184934.01381328c-4.6420163.38402571-8.28398908 4.21692332-8.41728505 8.89889052l-.00378095.2659064v128.3003898l.023.766.01940428.237356c.27404862 2.843838 1.86132525 5.407801 4.29464522 6.922032l.2029505.121612.566.309.159336.079135c5.9431052 2.857794 12.9574433-1.406325 13.129731-8.064395l.0032381-.250791-.0003051-128.313949-.019-.694-.0125082-.187934c-.3840257-4.6420163-4.2169233-8.28398908-8.8988905-8.41728505zm394.348339-8.001c17.28405 0 23.610845 22.4736521 9.39419 31.6100107l-.795885.4849046-119.222034 68.8322037c-2.637203 1.522678-5.425844 2.257235-8.156753 2.324559l-.355861.00511c-9.005978.031394-17.282301-7.1650592-17.282301-17.2279744 0-5.7810569 2.900663-11.1522374 7.680344-14.3246055l.917961-.5686149 119.222034-68.83220337c2.476003-1.43068689 5.266895-2.21790694 8.121917-2.29680909zm0 8c-1.501683 0-2.974452.36569614-4.296081 1.0644593l-.302253.16715062-119.105005 68.76339008-.679.421-.184508.127424c-2.325113 1.6577176-3.751089 4.3126475-3.846667 7.1776563l-.00513.3077333c0 7.0004797 7.484133 11.4058239 13.577915 8.091736l.217029-.121651 119.168361-68.8018986.559-.341.190091-.1246623c7.230083-4.9232706 3.864994-16.49449799-5.020042-16.72775784z" fill="#ffa36d"/></g></svg>